<svg xmlns="http://www.w3.org/2000/svg" width="1600" height="900" viewBox="0 0 1600 900">
  <defs>
    <linearGradient id="bg" x1="0" y1="0" x2="1" y2="1">
      <stop offset="0%" stop-color="#f5fbff"/>
      <stop offset="100%" stop-color="#dbe9f6"/>
    </linearGradient>
    <linearGradient id="boxFront" x1="0" y1="0" x2="1" y2="1">
      <stop offset="0%" stop-color="#ffffff"/>
      <stop offset="100%" stop-color="#eef4fb"/>
    </linearGradient>
    <linearGradient id="tube" x1="0" y1="0" x2="1" y2="1">
      <stop offset="0%" stop-color="#fdfefe"/>
      <stop offset="60%" stop-color="#e8eef6"/>
      <stop offset="100%" stop-color="#dbe2ec"/>
    </linearGradient>
    <filter id="shadow" x="-20%" y="-20%" width="140%" height="140%">
      <feDropShadow dx="0" dy="18" stdDeviation="20" flood-color="#5b6d82" flood-opacity="0.25"/>
    </filter>
  </defs>

  <rect width="1600" height="900" fill="url(#bg)"/>

  <g transform="translate(260,210) rotate(-8)" filter="url(#shadow)">
    <rect x="0" y="0" width="920" height="430" rx="14" fill="url(#boxFront)" stroke="#d8e1ea" stroke-width="3"/>
    <rect x="0" y="0" width="920" height="90" rx="14" fill="#1f63d8"/>
    <rect x="0" y="76" width="920" height="14" fill="#1f63d8"/>
    <rect x="0" y="270" width="920" height="96" fill="#f23745"/>

    <text x="70" y="175" font-family="Segoe UI, Arial, sans-serif" font-size="82" font-weight="700" fill="#17315f">
      Diclofenac
    </text>
    <text x="72" y="245" font-family="Segoe UI, Arial, sans-serif" font-size="52" font-weight="600" fill="#354d78">
      Pain Relief Gel
    </text>
    <text x="78" y="330" font-family="Segoe UI, Arial, sans-serif" font-size="34" font-weight="500" fill="#ffffff">
      Topical anti-inflammatory support for muscle and joint pain
    </text>
    <text x="78" y="386" font-family="Segoe UI, Arial, sans-serif" font-size="38" font-weight="700" fill="#1b2e56">
      30 g
    </text>

    <circle cx="800" cy="175" r="82" fill="#eaf2ff" stroke="#bad0ff" stroke-width="4"/>
    <path d="M775 175c0-22 18-40 40-40 16 0 30 9 36 22-22 4-38 23-38 46 0 11 3 21 8 30-26-2-46-27-46-58z" fill="#2b7df6"/>
    <path d="M818 204c8-11 12-22 12-36 0-10-2-20-7-29 23 5 40 25 40 50 0 29-23 52-52 52-14 0-28-6-37-15 17 1 33-7 44-22z" fill="#0fc4dd"/>
  </g>

  <g transform="translate(700,520) rotate(10)" filter="url(#shadow)">
    <path d="M0 40 C140 0 360 0 760 40 L760 160 C380 132 140 132 0 160 Z" fill="url(#tube)" stroke="#d0d9e4" stroke-width="3"/>
    <rect x="0" y="60" width="760" height="54" fill="#1f63d8"/>
    <rect x="0" y="114" width="760" height="24" fill="#f23745"/>
    <text x="44" y="101" font-family="Segoe UI, Arial, sans-serif" font-size="34" font-weight="700" fill="#ffffff">
      Diclofenac Gel
    </text>
    <text x="44" y="148" font-family="Segoe UI, Arial, sans-serif" font-size="22" font-weight="600" fill="#17315f">
      External use only
    </text>
    <path d="M760 52 L850 72 L850 130 L760 148 Z" fill="#cfd7e1" stroke="#bcc6d3" stroke-width="3"/>
    <path d="M850 72 L914 90 L914 114 L850 130 Z" fill="#aab4c1" stroke="#96a2b1" stroke-width="3"/>
  </g>
</svg>
