<svg xmlns="http://www.w3.org/2000/svg" width="1600" height="900" viewBox="0 0 1600 900">
  <defs>
    <linearGradient id="bg" x1="0" y1="0" x2="1" y2="1">
      <stop offset="0%" stop-color="#eef8ff"/>
      <stop offset="100%" stop-color="#dceffd"/>
    </linearGradient>
    <linearGradient id="packet" x1="0" y1="0" x2="1" y2="1">
      <stop offset="0%" stop-color="#ffffff"/>
      <stop offset="100%" stop-color="#f2f8ff"/>
    </linearGradient>
    <filter id="shadow" x="-20%" y="-20%" width="140%" height="140%">
      <feDropShadow dx="0" dy="18" stdDeviation="18" flood-color="#55708d" flood-opacity="0.24"/>
    </filter>
  </defs>

  <rect width="1600" height="900" fill="url(#bg)"/>

  <g transform="translate(260,160) rotate(-10)" filter="url(#shadow)">
    <rect x="0" y="0" width="520" height="620" rx="26" fill="url(#packet)" stroke="#cfe0ef" stroke-width="4"/>
    <rect x="0" y="0" width="520" height="86" rx="26" fill="#1d6fe4"/>
    <rect x="0" y="74" width="520" height="18" fill="#1d6fe4"/>
    <rect x="38" y="138" width="444" height="120" rx="18" fill="#f4fbff" stroke="#dbe9f7" stroke-width="3"/>
    <rect x="0" y="470" width="520" height="92" fill="#21b37f"/>

    <text x="56" y="220" font-family="Segoe UI, Arial, sans-serif" font-size="86" font-weight="700" fill="#16356c">
      ORS
    </text>
    <text x="58" y="310" font-family="Segoe UI, Arial, sans-serif" font-size="52" font-weight="600" fill="#2d5a96">
      Oral Rehydration Salts
    </text>
    <text x="58" y="384" font-family="Segoe UI, Arial, sans-serif" font-size="30" font-weight="500" fill="#476588">
      Helps replace water and electrolytes
    </text>
    <text x="58" y="525" font-family="Segoe UI, Arial, sans-serif" font-size="34" font-weight="700" fill="#ffffff">
      Mix with clean drinking water
    </text>

    <circle cx="404" cy="340" r="74" fill="#edf7ff" stroke="#bcd7f5" stroke-width="4"/>
    <path d="M404 285 C360 340, 372 397, 404 418 C436 397, 448 340, 404 285 Z" fill="#36a3ff"/>
    <path d="M389 352 L404 318 L419 352 L442 352 L411 388 L423 432 L404 405 L385 432 L397 388 L366 352 Z" fill="#1e77e8"/>
  </g>

  <g transform="translate(760,220) rotate(8)" filter="url(#shadow)">
    <rect x="0" y="0" width="520" height="620" rx="26" fill="url(#packet)" stroke="#cfe0ef" stroke-width="4"/>
    <rect x="0" y="0" width="520" height="86" rx="26" fill="#1d6fe4"/>
    <rect x="0" y="74" width="520" height="18" fill="#1d6fe4"/>
    <rect x="0" y="470" width="520" height="92" fill="#1fa9d8"/>

    <text x="58" y="210" font-family="Segoe UI, Arial, sans-serif" font-size="78" font-weight="700" fill="#16356c">
      ORS Sachet
    </text>
    <text x="58" y="290" font-family="Segoe UI, Arial, sans-serif" font-size="46" font-weight="600" fill="#2d5a96">
      Rehydration Support
    </text>
    <text x="58" y="365" font-family="Segoe UI, Arial, sans-serif" font-size="28" font-weight="500" fill="#486688">
      Sodium chloride, glucose,
    </text>
    <text x="58" y="405" font-family="Segoe UI, Arial, sans-serif" font-size="28" font-weight="500" fill="#486688">
      potassium and citrate blend
    </text>
    <text x="58" y="525" font-family="Segoe UI, Arial, sans-serif" font-size="34" font-weight="700" fill="#ffffff">
      Sachet for oral solution
    </text>

    <rect x="334" y="152" width="120" height="180" rx="18" fill="#f8fcff" stroke="#d7e7f7" stroke-width="3"/>
    <path d="M394 188 C354 230, 362 278, 394 302 C426 278, 434 230, 394 188 Z" fill="#33b5ff"/>
    <path d="M383 236 L394 212 L405 236 L421 236 L399 263 L408 295 L394 277 L380 295 L389 263 L367 236 Z" fill="#1b79e7"/>
  </g>
</svg>
